<svg width="21" height="20" viewBox="0 0 21 20" fill="none" xmlns="http://www.w3.org/2000/svg">
<path d="M12.4082 10.0003L18.8184 3.59011L20.1404 2.2682C20.3354 2.07319 20.3354 1.75631 20.1404 1.5613L18.7259 0.14688C18.5309 -0.0481264 18.2141 -0.0481264 18.019 0.14688L10.2869 7.879L2.55482 0.146255C2.35981 -0.0487515 2.04293 -0.0487515 1.84792 0.146255L0.432876 1.56067C0.23787 1.75568 0.23787 2.07256 0.432876 2.26757L8.16562 10.0003L0.432876 17.7324C0.23787 17.9274 0.23787 18.2443 0.432876 18.4393L1.84729 19.8537C2.0423 20.0487 2.35919 20.0487 2.55419 19.8537L10.2869 12.1216L16.6971 18.5318L18.019 19.8537C18.2141 20.0487 18.5309 20.0487 18.7259 19.8537L20.1404 18.4393C20.3354 18.2443 20.3354 17.9274 20.1404 17.7324L12.4082 10.0003Z" fill="#636363"/>
</svg>
